<?xml version="1.0" standalone="no"?>
<!DOCTYPE svg PUBLIC "-//W3C//DTD SVG 20010904//EN"
 "http://www.w3.org/TR/2001/REC-SVG-20010904/DTD/svg10.dtd">
<svg version="1.0" xmlns="http://www.w3.org/2000/svg"
 width="425.000000pt" height="425.000000pt" viewBox="0 0 425.000000 425.000000"
 preserveAspectRatio="xMidYMid meet">
<metadata>
Created by potrace 1.11, written by Peter Selinger 2001-2013
</metadata>
<g transform="translate(0.000000,425.000000) scale(0.100000,-0.100000)"
fill="#000000" stroke="none">
<path d="M1344 4058 c-5 -7 3 -946 11 -1408 l5 -274 -35 58 c-19 32 -35 60
-35 62 0 16 -319 487 -659 974 -46 66 -61 88 -261 380 -147 214 -138 205 -197
203 -26 -1 -65 -2 -85 -2 l-37 -1 5 -467 c3 -258 7 -594 9 -748 2 -154 4 -359
4 -456 l1 -177 67 2 68 1 -1 190 c-4 552 -15 1327 -20 1405 -3 50 -3 90 -1 90
3 0 33 -49 67 -110 53 -94 183 -288 535 -795 38 -55 91 -131 117 -170 27 -38
54 -79 62 -90 8 -11 84 -121 170 -244 150 -218 154 -226 140 -250 -21 -39 -45
-79 -218 -358 -254 -412 -320 -518 -326 -523 -10 -9 -6 -270 5 -271 5 -1 219
-2 475 -3 l465 -1 2 -165 c1 -91 2 -171 2 -177 1 -10 64 -13 280 -13 l279 0 0
169 c-1 92 2 172 5 177 5 10 232 13 240 4 3 -3 8 -22 11 -42 7 -47 53 -182 78
-233 59 -117 145 -220 243 -290 77 -55 125 -79 222 -110 99 -33 159 -40 308
-39 203 2 346 55 461 170 62 61 64 63 65 36 1 -15 2 -52 4 -82 2 -30 3 -65 4
-77 1 -23 3 -23 144 -23 l142 0 -2 473 c-1 259 -2 479 -2 488 -1 16 -39 17
-436 18 l-435 1 0 -145 0 -145 271 0 272 0 -7 -72 c-19 -219 -195 -342 -471
-332 -316 12 -480 225 -484 629 -3 334 127 560 359 626 67 18 198 20 270 3
126 -29 218 -100 271 -211 29 -60 31 -62 56 -52 30 11 148 62 208 89 132 60
126 53 98 98 -66 107 -94 145 -154 203 -84 82 -224 157 -329 175 -14 3 -31 7
-39 10 -48 17 -293 24 -391 11 -247 -33 -464 -160 -584 -342 -65 -98 -123
-234 -141 -335 -14 -75 -4 -70 -136 -70 l-119 0 -1 28 c0 15 0 255 -1 535 0
367 -4 507 -12 508 -65 6 -454 2 -463 -5 -8 -5 -13 -5 -13 1 0 5 -58 8 -130 7
-126 -2 -130 -1 -131 20 -1 51 -10 703 -13 1046 -3 206 -5 386 -5 400 -1 25
-4 26 -62 26 -33 0 -63 -4 -65 -8z m846 -1855 c-1 -159 -1 -404 0 -545 l0
-257 108 -3 107 -3 0 -100 c0 -154 11 -141 -111 -140 l-104 1 -1 -100 c0 -56
0 -138 1 -182 l1 -82 -208 2 -207 1 -1 170 c-1 94 -2 175 -3 180 -1 7 -156 10
-449 10 l-448 0 0 123 -1 122 451 0 451 0 -1 538 c0 295 1 540 3 545 2 4 95 7
208 7 l204 0 0 -287z m-506 -150 c-3 -60 -5 -208 -5 -330 l0 -223 -180 0 -179
0 29 48 c173 285 279 476 317 572 9 22 18 40 19 40 2 0 1 -48 -1 -107z"/>
</g>
</svg>
